<svg width="301" height="301" viewBox="0 0 301 301" fill="none" xmlns="http://www.w3.org/2000/svg">
<circle cx="150.5" cy="150.5" r="150.5" fill="#0B2351"/>
<path d="M269.309 203.328C268.854 203.194 268.433 203.253 268.046 203.507C267.655 203.759 267.346 204.153 267.118 204.691C266.956 205.075 266.876 205.434 266.879 205.766C266.88 206.097 266.952 206.385 267.097 206.63C267.24 206.871 267.444 207.047 267.71 207.159C267.933 207.254 268.147 207.283 268.352 207.248C268.559 207.209 268.754 207.128 268.936 207.003C269.117 206.875 269.285 206.726 269.443 206.559C269.597 206.39 269.735 206.224 269.859 206.06L270.484 205.245C270.684 204.977 270.913 204.712 271.171 204.451C271.429 204.189 271.717 203.968 272.036 203.785C272.354 203.603 272.699 203.494 273.071 203.457C273.444 203.417 273.841 203.486 274.262 203.664C274.794 203.889 275.207 204.225 275.503 204.674C275.8 205.12 275.958 205.653 275.977 206.273C275.996 206.89 275.851 207.564 275.542 208.297C275.245 208.999 274.876 209.559 274.436 209.978C273.997 210.396 273.511 210.664 272.979 210.781C272.445 210.897 271.888 210.85 271.311 210.642L271.911 209.223C272.262 209.338 272.59 209.348 272.898 209.251C273.203 209.15 273.475 208.972 273.712 208.716C273.948 208.456 274.143 208.144 274.297 207.781C274.466 207.381 274.554 206.999 274.56 206.635C274.565 206.266 274.493 205.944 274.343 205.668C274.19 205.391 273.961 205.188 273.656 205.059C273.378 204.942 273.117 204.925 272.873 205.009C272.63 205.09 272.394 205.24 272.164 205.459C271.936 205.676 271.706 205.933 271.476 206.232L270.705 207.212C270.183 207.876 269.63 208.344 269.048 208.616C268.466 208.885 267.849 208.881 267.196 208.604C266.655 208.376 266.246 208.03 265.967 207.566C265.688 207.103 265.543 206.574 265.532 205.979C265.517 205.383 265.643 204.77 265.909 204.141C266.178 203.506 266.526 202.993 266.954 202.602C267.384 202.208 267.853 201.953 268.363 201.838C268.869 201.721 269.377 201.763 269.886 201.964L269.309 203.328ZM280.437 195.942L270.648 193.141L271.646 189.652C271.863 188.894 272.174 188.302 272.578 187.876C272.984 187.447 273.453 187.175 273.986 187.059C274.516 186.941 275.082 186.969 275.684 187.141C276.283 187.313 276.775 187.589 277.158 187.971C277.54 188.35 277.784 188.826 277.892 189.402C278.001 189.974 277.946 190.639 277.729 191.398L276.973 194.041L275.702 193.677L276.42 191.168C276.556 190.69 276.599 190.282 276.548 189.943C276.497 189.601 276.362 189.322 276.14 189.107C275.919 188.892 275.625 188.733 275.259 188.628C274.889 188.522 274.549 188.502 274.237 188.568C273.926 188.631 273.655 188.793 273.425 189.055C273.193 189.312 273.007 189.685 272.868 190.172L272.337 192.027L280.859 194.465L280.437 195.942ZM277.403 189.846L282.511 188.691L282.03 190.374L276.935 191.481L277.403 189.846ZM275.167 176.553L285.191 178.337L284.922 179.849L274.898 178.066L275.167 176.553ZM277.597 157.394L277.56 155.53L285.408 152.13L285.405 152.01L277.427 148.929L277.389 147.065L287.569 146.86L287.598 148.321L280.232 148.469L280.234 148.564L287.646 151.418L287.67 152.631L280.374 155.781L280.376 155.876L287.748 155.727L287.777 157.189L277.597 157.394ZM287.084 136.11L287.338 137.721L276.71 135.684L276.434 133.931L285.923 128.729L286.176 130.34L278.393 134.478L278.405 134.557L287.084 136.11ZM283.103 136.46L282.281 131.234L283.558 131.034L284.38 136.259L283.103 136.46ZM272.273 114.698L282.043 111.829L282.44 113.184L276.734 120.254L276.761 120.344L283.925 118.24L284.358 119.714L274.589 122.583L274.189 121.219L279.903 114.141L279.876 114.051L272.702 116.158L272.273 114.698ZM269.141 104.844L278.539 100.927L279.13 102.345L269.732 106.262L269.141 104.844ZM266.03 97.3336L265.201 95.798L268.01 91.2588L267.958 91.1626L262.622 91.0207L261.793 89.4851L268.99 89.7978L272.507 87.8991L273.235 89.2465L269.717 91.1453L266.03 97.3336ZM266.29 76.8906L267.234 78.2203L256.811 81.1264L255.783 79.6791L261.965 70.7975L262.909 72.1272L257.781 79.2977L257.827 79.3626L266.29 76.8906ZM262.881 78.9757L259.819 74.6623L260.873 73.914L263.935 78.2274L262.881 78.9757ZM240.813 61.1735L247.872 53.8363L248.979 54.9014L241.92 62.2386L240.813 61.1735ZM227.9 50.0364L234.147 41.9961L235.262 42.8624L234.767 51.9344L234.842 51.9924L239.423 46.0957L240.636 47.0382L234.39 55.0785L233.267 54.2061L233.764 45.1232L233.689 45.0652L229.101 50.9698L227.9 50.0364ZM217.627 39.6582C217.433 40.0903 217.436 40.5155 217.635 40.9337C217.833 41.3547 218.183 41.7137 218.685 42.0106C219.044 42.2231 219.389 42.3499 219.719 42.391C220.047 42.4349 220.342 42.4014 220.604 42.2906C220.862 42.1809 221.064 42.002 221.21 41.7538C221.334 41.5455 221.391 41.3371 221.384 41.1285C221.373 40.9183 221.319 40.7145 221.22 40.5174C221.116 40.3214 220.992 40.1343 220.847 39.9562C220.7 39.7809 220.554 39.6213 220.408 39.4773L219.684 38.7487C219.444 38.5149 219.213 38.2527 218.988 37.962C218.763 37.6713 218.582 37.3561 218.444 37.0165C218.306 36.6769 218.243 36.3204 218.256 35.9468C218.266 35.5716 218.387 35.1871 218.62 34.7934C218.914 34.297 219.303 33.9321 219.787 33.6987C220.269 33.4637 220.818 33.3783 221.435 33.4425C222.048 33.505 222.698 33.7387 223.382 34.1435C224.039 34.5315 224.545 34.9713 224.901 35.463C225.257 35.9546 225.458 36.4717 225.503 37.0143C225.546 37.5597 225.426 38.1047 225.142 38.6494L223.816 37.8651C223.977 37.5332 224.031 37.2085 223.976 36.8912C223.916 36.5749 223.776 36.282 223.554 36.0123C223.328 35.7437 223.045 35.5091 222.705 35.3084C222.331 35.0874 221.964 34.9494 221.604 34.8943C221.24 34.8404 220.911 34.8692 220.618 34.9808C220.323 35.0953 220.091 35.2952 219.922 35.5805C219.769 35.8401 219.717 36.0965 219.768 36.3497C219.815 36.6012 219.933 36.8554 220.12 37.1122C220.304 37.3674 220.528 37.6291 220.793 37.8974L221.662 38.7922C222.251 39.3983 222.641 40.0082 222.833 40.622C223.021 41.2341 222.935 41.8455 222.574 42.456C222.276 42.961 221.878 43.3208 221.381 43.5355C220.885 43.7502 220.341 43.8233 219.75 43.755C219.157 43.6895 218.567 43.483 217.979 43.1355C217.386 42.7847 216.924 42.371 216.594 41.8945C216.26 41.4164 216.07 40.9171 216.024 40.3967C215.975 39.8792 216.085 39.3817 216.352 38.9042L217.627 39.6582ZM208.703 35.9635L208.173 37.1753L200.952 34.0197L201.482 32.8079L204.393 34.0801L207.941 25.9622L209.344 26.5754L205.796 34.6933L208.703 35.9635ZM191.797 30.2591L194.883 20.5563L196.347 21.022L193.261 30.7248L191.797 30.2591ZM184.07 26.4311L183.8 27.7256L176.086 26.1165L176.356 24.8219L179.466 25.4707L181.275 16.798L182.774 17.1107L180.965 25.7833L184.07 26.4311ZM161.581 23.9949L160.044 23.8729L160.574 17.1972C160.631 16.4868 160.848 15.8707 161.225 15.3487C161.602 14.83 162.105 14.4378 162.735 14.1719C163.364 13.9094 164.085 13.8104 164.898 13.8749C165.707 13.9392 166.402 14.1506 166.982 14.5092C167.562 14.8711 167.997 15.3379 168.287 15.9095C168.577 16.4845 168.694 17.1272 168.638 17.8375L168.108 24.5132L166.576 24.3916L167.097 17.8398C167.133 17.3806 167.065 16.9645 166.892 16.5917C166.715 16.2186 166.448 15.9148 166.091 15.6803C165.734 15.4491 165.299 15.3132 164.787 15.2725C164.272 15.2316 163.819 15.297 163.43 15.4689C163.037 15.6439 162.727 15.9019 162.501 16.243C162.271 16.5838 162.137 16.9838 162.101 17.4431L161.581 23.9949ZM151.859 21.9044L151.918 23.2255L144.046 23.5796L143.987 22.2585L147.161 22.1158L146.762 13.2653L148.292 13.1965L148.69 22.047L151.859 21.9044ZM134.182 13.9644L135.845 24.0094L129.547 25.0522L129.331 23.7475L134.113 22.9557L133.606 19.8951L129.153 20.6325L128.938 19.3328L133.391 18.5953L132.882 15.52L128.041 16.3216L127.825 15.0169L134.182 13.9644ZM100.953 27.7726C100.556 26.7605 100.4 25.8178 100.485 24.9444C100.571 24.074 100.86 23.3165 101.351 22.6718C101.841 22.0314 102.494 21.5509 103.312 21.2303C104.133 20.9085 104.942 20.8156 105.739 20.9516C106.535 21.0918 107.26 21.4535 107.916 22.0365C108.572 22.6196 109.097 23.4157 109.493 24.4247C109.89 25.4368 110.045 26.378 109.959 27.2483C109.874 28.1218 109.587 28.8787 109.098 29.5191C108.607 30.1638 107.951 30.6471 107.13 30.9689C106.312 31.2894 105.505 31.3796 104.71 31.2393C103.913 31.1034 103.186 30.7439 102.53 30.1608C101.876 29.5808 101.35 28.7848 100.953 27.7726ZM102.37 27.2174C102.672 27.9888 103.052 28.5894 103.508 29.019C103.963 29.453 104.46 29.7211 104.999 29.8232C105.535 29.9297 106.075 29.8765 106.618 29.6636C107.164 29.4495 107.598 29.121 107.919 28.6782C108.242 28.2385 108.424 27.7043 108.466 27.0756C108.506 26.4511 108.374 25.7532 108.072 24.9818C107.77 24.2103 107.391 23.6076 106.936 23.1737C106.479 22.744 105.982 22.4759 105.446 22.3695C104.91 22.2661 104.37 22.3214 103.824 22.5356C103.28 22.7485 102.848 23.0748 102.525 23.5145C102.201 23.9585 102.019 24.4927 101.979 25.1171C101.937 25.7459 102.067 26.4459 102.37 27.2174ZM90.2156 26.6639L95.0846 35.606L89.5394 38.6254L88.907 37.4639L93.103 35.1792L91.6195 32.4546L87.8208 34.523L87.1908 33.366L90.9895 31.2976L88.8664 27.3985L90.2156 26.6639ZM66.9582 40.864L73.55 48.624L72.3792 49.6185L69.5146 46.2463L65.646 49.5325L68.5106 52.9048L67.336 53.9026L60.7441 46.1426L61.9187 45.1448L64.793 48.5285L68.6616 45.2422L65.7874 41.8586L66.9582 40.864ZM51.1093 62.6427C50.3042 61.9122 49.7456 61.1369 49.4335 60.3167C49.1239 59.4988 49.046 58.6919 49.1997 57.8961C49.3536 57.1049 49.7257 56.384 50.3158 55.7336C50.9082 55.0806 51.5918 54.6379 52.3665 54.4055C53.1415 54.1778 53.9523 54.1794 54.7988 54.4104C55.6454 54.6414 56.47 55.1211 57.2727 55.8493C58.0778 56.5798 58.6352 57.354 58.9448 58.1719C59.2569 58.992 59.3359 59.7977 59.182 60.5889C59.0283 61.3847 58.6552 62.1092 58.0628 62.7621C57.4727 63.4126 56.7901 63.8517 56.0151 64.0794C55.2404 64.3119 54.4297 64.3126 53.5832 64.0816C52.7391 63.8528 51.9145 63.3731 51.1093 62.6427ZM52.1316 61.516C52.7452 62.0727 53.3521 62.4421 53.9523 62.6241C54.5526 62.8108 55.1167 62.8303 55.6445 62.6826C56.1725 62.5396 56.6325 62.2521 57.0245 61.8201C57.4187 61.3856 57.6613 60.8986 57.7524 60.3592C57.846 59.822 57.7718 59.2625 57.53 58.6806C57.2884 58.1034 56.8608 57.5365 56.2471 56.9797C55.6335 56.4229 55.0264 56.0512 54.4261 55.8645C53.8259 55.6825 53.2618 55.663 52.7338 55.806C52.2082 55.9513 51.7484 56.2411 51.3542 56.6756C50.9622 57.1076 50.7195 57.5922 50.6259 58.1294C50.5326 58.6713 50.6067 59.2308 50.8483 59.808C51.0901 60.3899 51.5179 60.9592 52.1316 61.516ZM48.8345 70.7695L49.9175 71.5283L45.396 77.982L44.3129 77.2231L46.1358 74.6213L38.88 69.5378L39.7587 68.2837L47.0144 73.3672L48.8345 70.7695ZM31.7598 79.9332L40.7366 84.7381L37.7241 90.3661L36.5582 89.7421L38.8457 85.4685L36.1106 84.0045L33.9803 87.9844L32.8187 87.3627L34.949 83.3827L32.2008 81.9117L29.8851 86.2379L28.7192 85.6138L31.7598 79.9332ZM24.2669 94.2046L33.7368 97.9449L33.1725 99.3738L24.9325 96.1192L23.2377 100.41L22.0077 99.9245L24.2669 94.2046ZM25.6949 121.38L25.394 123.22L17.0598 125.141L17.0405 125.259L24.3284 129.735L24.0275 131.575L13.9792 129.932L14.2151 128.49L21.4864 129.679L21.5016 129.585L14.7297 125.435L14.9254 124.238L22.6716 122.462L22.6868 122.369L15.4106 121.179L15.6465 119.736L25.6949 121.38ZM12.508 140.59L12.5505 138.96L22.6333 142.889L22.587 144.663L12.3131 148.06L12.3556 146.43L20.7602 143.77L20.7623 143.69L12.508 140.59ZM16.4867 140.968L16.3487 146.256L15.0565 146.222L15.1945 140.934L16.4867 140.968ZM23.1795 164.353L13.0502 165.385L12.907 163.981L19.811 158.075L19.8014 157.981L12.3726 158.738L12.2168 157.21L22.3462 156.177L22.4903 157.592L15.5769 163.504L15.5865 163.598L23.0252 162.839L23.1795 164.353ZM14.3932 176.075L14.0225 174.487L24.7707 175.741L25.1742 177.469L16.092 183.352L15.7213 181.764L23.1811 177.067L23.163 176.989L14.3932 176.075ZM18.3382 175.435L19.5408 180.586L18.282 180.88L17.0794 175.729L18.3382 175.435ZM27.1379 195.782C27.3868 195.587 27.5946 195.371 27.7614 195.136C27.9324 194.902 28.0583 194.652 28.1389 194.384C28.2227 194.116 28.2567 193.833 28.2408 193.534C28.2261 193.239 28.1596 192.933 28.0414 192.617C27.8408 192.079 27.5218 191.647 27.0843 191.318C26.6468 190.99 26.114 190.799 25.4861 190.747C24.8624 190.697 24.1655 190.816 23.3954 191.103C22.6223 191.392 22.0156 191.762 21.5755 192.213C21.1353 192.664 20.8588 193.16 20.7459 193.701C20.6331 194.242 20.681 194.792 20.8896 195.35C21.0833 195.869 21.3575 196.281 21.7124 196.588C22.0685 196.897 22.4784 197.085 22.9423 197.153C23.4104 197.222 23.9068 197.159 24.4316 196.963L24.5009 197.361L23.4818 194.632L24.6695 194.189L26.0694 197.938L24.9842 198.343C24.1831 198.642 23.4238 198.731 22.7063 198.61C21.9931 198.491 21.3647 198.191 20.8211 197.711C20.2787 197.234 19.8637 196.611 19.5762 195.841C19.2539 194.978 19.1698 194.146 19.3237 193.345C19.4789 192.548 19.8535 191.832 20.4475 191.196C21.0446 190.559 21.8462 190.053 22.8523 189.677C23.613 189.393 24.3355 189.243 25.0198 189.229C25.7041 189.214 26.3287 189.318 26.8936 189.543C27.4628 189.769 27.9559 190.099 28.3731 190.534C28.7945 190.971 29.1206 191.499 29.3513 192.117C29.5438 192.632 29.6468 193.14 29.6604 193.641C29.6752 194.145 29.6078 194.623 29.4582 195.075C29.3098 195.53 29.086 195.945 28.7867 196.318C28.4906 196.691 28.1247 197.004 27.6891 197.259L27.1379 195.782ZM24.6875 208.731L33.7035 204L36.6695 209.652L35.4985 210.267L33.2462 205.974L30.4992 207.416L32.5966 211.413L31.43 212.025L29.3325 208.028L26.5723 209.476L28.8522 213.822L27.6812 214.436L24.6875 208.731ZM40.6242 217.063L41.6992 218.586L37.1021 225.798L37.1709 225.896L45.5064 223.98L46.5815 225.503L38.263 231.374L37.4201 230.18L43.4397 225.931L43.3852 225.854L35.6463 227.641L34.9467 226.65L39.2266 219.954L39.1721 219.877L33.1485 224.128L32.3057 222.934L40.6242 217.063ZM44.0947 239.382L51.5704 232.47L55.9043 237.156L54.9333 238.054L51.6424 234.495L49.3647 236.601L52.4294 239.916L51.4621 240.81L48.3973 237.496L46.1086 239.612L49.44 243.215L48.469 244.113L44.0947 239.382ZM67.9861 248.644L61.4179 256.424L60.339 255.513L61.2016 246.469L61.1294 246.408L56.3123 252.114L55.1384 251.123L61.7067 243.343L62.7931 244.26L61.928 253.315L62.0001 253.376L66.8237 247.663L67.9861 248.644ZM73.4831 255.006L74.2021 253.897L80.8156 258.181L80.0966 259.291L77.4303 257.564L72.6134 264.999L71.3283 264.167L76.1452 256.731L73.4831 255.006ZM93.4503 276.839L97.1238 267.343L98.5566 267.897L96.8023 272.432L96.9182 272.477L102.655 269.483L104.459 270.181L98.9754 272.974L100.8 279.682L99.0747 279.015L97.6464 273.585L96.0256 274.44L94.8831 277.393L93.4503 276.839ZM110.169 283.04L108.586 282.648L114.595 273.649L116.318 274.076L117.421 284.841L115.838 284.448L115.052 275.667L114.975 275.648L110.169 283.04ZM111.395 279.237L116.529 280.511L116.217 281.766L111.083 280.491L111.395 279.237ZM135.654 277.72L134.5 287.836L133.097 287.676L128.801 279.67L128.707 279.659L127.861 287.079L126.335 286.905L127.489 276.788L128.901 276.95L133.201 284.966L133.295 284.976L134.142 277.547L135.654 277.72ZM143.483 278.649L145.228 278.632L147.934 283.233L148.044 283.232L150.657 278.577L152.402 278.559L148.77 284.781L148.811 288.778L147.28 288.793L147.239 284.796L143.483 278.649ZM161.449 288.41L159.833 288.624L162.128 278.049L163.887 277.816L168.857 287.428L167.24 287.643L163.292 279.76L163.213 279.771L161.449 288.41ZM161.197 284.421L166.44 283.726L166.61 285.008L161.366 285.703L161.197 284.421ZM177.908 286.09L175.334 276.239L176.82 275.85L178.05 280.555L178.17 280.523L181.072 274.739L182.943 274.25L180.129 279.723L185.532 284.097L183.743 284.565L179.409 280.996L178.594 282.637L179.395 285.701L177.908 286.09ZM196.54 269.762L197.968 269.183L200.484 275.39C200.751 276.05 200.833 276.698 200.73 277.334C200.625 277.966 200.35 278.543 199.907 279.062C199.461 279.579 198.861 279.99 198.105 280.296C197.353 280.601 196.637 280.723 195.958 280.662C195.277 280.598 194.679 280.376 194.164 279.995C193.647 279.611 193.255 279.088 192.987 278.428L190.472 272.221L191.896 271.644L194.364 277.736C194.537 278.163 194.784 278.504 195.106 278.76C195.431 279.014 195.806 279.167 196.23 279.216C196.653 279.263 197.103 279.19 197.579 278.997C198.058 278.803 198.433 278.542 198.704 278.214C198.977 277.881 199.139 277.512 199.189 277.105C199.242 276.698 199.182 276.28 199.009 275.853L196.54 269.762ZM205.834 265.934L207.449 265.003L214.21 270.241L214.314 270.182L213.169 261.706L214.785 260.775L219.869 269.596L218.603 270.326L214.924 263.943L214.842 263.99L215.912 271.86L214.861 272.466L208.585 267.591L208.503 267.638L212.185 274.025L210.919 274.755L205.834 265.934ZM229.052 263.988L227.765 264.99L224.405 254.703L225.806 253.614L234.95 259.4L233.663 260.402L226.275 255.592L226.212 255.641L229.052 263.988ZM226.82 260.673L230.995 257.426L231.789 258.446L227.613 261.694L226.82 260.673ZM242.088 253.675L234.903 246.461L237.474 243.9C238.033 243.343 238.592 242.977 239.153 242.803C239.716 242.626 240.258 242.616 240.781 242.774C241.301 242.93 241.782 243.23 242.224 243.673C242.663 244.115 242.958 244.596 243.107 245.117C243.256 245.632 243.237 246.168 243.051 246.723C242.867 247.276 242.496 247.83 241.937 248.387L239.989 250.327L239.056 249.39L240.905 247.548C241.257 247.198 241.493 246.862 241.613 246.541C241.736 246.218 241.753 245.908 241.664 245.613C241.576 245.317 241.397 245.035 241.128 244.765C240.857 244.492 240.569 244.309 240.265 244.215C239.962 244.118 239.647 244.128 239.319 244.244C238.99 244.356 238.647 244.591 238.287 244.949L236.921 246.31L243.177 252.591L242.088 253.675ZM242.407 246.873L247.431 248.352L246.192 249.587L241.203 248.073L242.407 246.873ZM246.934 234.17L254.816 240.615L253.844 241.804L245.961 235.359L246.934 234.17Z" fill="white"/>
</svg>
